<svg width="75" height="75" viewBox="0 0 75 75" fill="none" xmlns="http://www.w3.org/2000/svg">
<g clip-path="url(#clip0)">
<path d="M1.90381 18.1024V58.7945L37.3946 72.1715V31.1735L1.90381 18.1024Z" fill="#FCB808"/>
<path d="M73.0384 18.1024V58.7945L37.5476 72.1715V31.1735L73.0384 18.1024Z" fill="#FCB808"/>
<path d="M20.805 9.28052L53.5252 24.0514L37.5475 31.1733L2.65161 16.9294L20.805 9.28052Z" fill="white"/>
<path d="M38.8562 1.32581L71.5765 16.0797L55.5988 23.2016L20.7029 8.97469L38.8562 1.32581Z" fill="white"/>
<path d="M56.4825 56.2958C55.8366 56.2958 55.2587 55.9049 55.0037 55.31C54.8337 54.919 54.8337 54.4771 55.0037 54.0861C55.1737 53.6952 55.4796 53.3892 55.8706 53.2193L61.5647 50.8566C61.8537 50.7376 62.0407 50.4487 62.0407 50.1257V44.5505C62.0407 43.6667 62.7546 42.9528 63.6384 42.9528C64.5223 42.9528 65.2362 43.6667 65.2362 44.5505V51.7065C65.2362 51.9104 65.2022 52.1144 65.1172 52.3184C65.1002 52.3524 65.0662 52.3864 65.0322 52.4204C64.9982 52.4714 64.9642 52.5224 64.9303 52.5734C64.8963 52.6243 64.8623 52.6923 64.8283 52.7433C64.8113 52.7773 64.7943 52.8113 64.7773 52.8283C64.6413 52.9643 64.4543 53.0833 64.2674 53.1683L57.1114 56.1598C56.9074 56.2618 56.7035 56.2958 56.4825 56.2958Z" fill="#0044AF"/>
<path d="M74.7891 16.4876C74.7891 16.3346 74.7551 16.1646 74.6701 15.9437C74.6531 15.9097 74.6531 15.8927 74.6361 15.8587C74.5511 15.6887 74.4661 15.5527 74.3642 15.4337C74.3302 15.4167 74.3132 15.3828 74.2792 15.3658L74.2282 15.3148C74.1772 15.2638 74.1092 15.2128 74.0752 15.1788C74.0242 15.1448 73.9902 15.1278 73.9392 15.1108L73.8542 15.0768C73.8032 15.0598 73.7692 15.0258 73.7352 15.0088L38.0065 0.118983C37.8195 0.033995 37.5985 0 37.3945 0C37.1906 0 36.9696 0.033995 36.7826 0.118983C36.7656 0.118983 36.7486 0.13598 36.7486 0.13598L1.07084 15.0088C1.03685 15.0258 0.985856 15.0428 0.934864 15.0768L0.866874 15.1108C0.815881 15.1278 0.764888 15.1448 0.713896 15.1788C0.679901 15.2128 0.611911 15.2638 0.560918 15.3318L0.509926 15.3658C0.475931 15.3828 0.458933 15.4167 0.424938 15.4337C0.322953 15.5527 0.237965 15.6887 0.152978 15.8587C0.13598 15.8927 0.13598 15.9097 0.118983 15.9777C0.033995 16.1646 0 16.3346 0 16.4706C0 16.4876 0 16.5216 0 16.5556V58.2675C0 58.9134 0.390943 59.4913 0.985856 59.7463L36.6976 74.6361C36.7316 74.6361 36.7826 74.6531 36.8336 74.6701C37.0546 74.7551 37.2416 74.7891 37.3945 74.7891C37.5475 74.7891 37.7345 74.7551 37.9555 74.6701C38.0065 74.6531 38.0574 74.6361 38.0914 74.6361L73.8032 59.7633C74.3981 59.5083 74.7891 58.9304 74.7891 58.2845V16.5556C74.7891 16.5386 74.7891 16.5046 74.7891 16.4876ZM25.8702 8.14181L37.0886 3.46749C37.1906 3.4165 37.2926 3.3995 37.3945 3.3995C37.4965 3.3995 37.5985 3.4165 37.7005 3.46749L67.2932 15.7907C67.5821 15.9097 67.7691 16.1986 67.7691 16.5216C67.7691 16.8445 67.5821 17.1165 67.2932 17.2525L55.9048 21.9948C55.8538 22.0118 55.8199 22.0118 55.7689 22.0288L53.3552 21.0429L25.8702 9.5866C25.5813 9.46762 25.3943 9.17866 25.3943 8.85571C25.3943 8.54975 25.5813 8.26079 25.8702 8.14181ZM35.7968 69.6048C35.7968 69.8598 35.6608 70.1148 35.4398 70.2508C35.3038 70.3357 35.1509 70.3867 34.9979 70.3867C34.8959 70.3867 34.7939 70.3697 34.6919 70.3187L3.67146 57.4006C3.3995 57.2816 3.21253 56.9927 3.21253 56.6867V20.0911C3.21253 19.8361 3.34851 19.5811 3.56948 19.4452C3.70546 19.3602 3.85844 19.3092 4.01141 19.3092C4.1134 19.3092 4.21538 19.3262 4.31737 19.3772L35.3038 32.2953C35.5928 32.4143 35.7798 32.7032 35.7798 33.0262V69.6048H35.7968ZM37.7005 29.5587C37.5985 29.5927 37.4965 29.6267 37.3945 29.6267C37.2926 29.6267 37.1906 29.6097 37.0886 29.5587L7.49591 17.2355C7.20695 17.1165 7.01998 16.8275 7.01998 16.5216C7.01998 16.1986 7.20695 15.9267 7.49591 15.7907L19.6661 10.7254C19.7681 10.6914 19.8701 10.6574 19.9721 10.6574C20.0741 10.6574 20.1761 10.6744 20.278 10.7254L49.8707 23.0486C50.1597 23.1676 50.3467 23.4566 50.3467 23.7795C50.3467 24.1025 50.1597 24.3744 49.8707 24.5104L37.7005 29.5587ZM71.5766 56.6867C71.5766 57.0097 71.3896 57.2816 71.1006 57.4176L40.0802 70.3357C39.9782 70.3697 39.8762 70.4037 39.7742 70.4037C39.6212 70.4037 39.4682 70.3527 39.3323 70.2677C39.1113 70.1148 38.9753 69.8768 38.9753 69.6218V33.0262C38.9753 32.7032 39.1623 32.4313 39.4512 32.2953L70.4717 19.3772C70.5737 19.3432 70.6757 19.3092 70.7777 19.3092C70.9306 19.3092 71.0836 19.3602 71.2196 19.4452C71.4406 19.5981 71.5766 19.8361 71.5766 20.0911V56.6867Z" fill="#0044AF"/>
</g>
<defs>
<clipPath id="clip0">
<rect width="74.7891" height="74.7891" fill="white"/>
</clipPath>
</defs>
</svg>
