<svg width="75" height="75" viewBox="0 0 75 75" fill="none" xmlns="http://www.w3.org/2000/svg">
<g clip-path="url(#clip0)">
<path d="M24.6463 55.7009C27.8929 59.4404 32.6182 61.5991 37.5815 61.5991C42.5447 61.5991 47.253 59.4574 50.5166 55.7009L57.8425 61.5991L67.0892 62.7889L72.2904 69.214L73.0383 73.3613L46.4712 71.5766H2.05664L6.50999 62.245L17.2864 60.6982L24.6463 55.7009Z" fill="#FCB808"/>
<path d="M52.9981 25.6492L52.0802 39.6721H61.4288L64.1144 33.2981L62.4827 26.771L52.9981 25.6492Z" fill="#FCB808"/>
<path d="M21.7739 25.6492L22.6917 39.6721H13.3431L10.6405 33.2981L12.2723 26.771L21.7739 25.6492Z" fill="#FCB808"/>
<path d="M37.3946 12.7482C31.0545 12.7482 23.4736 15.6717 23.4736 29.5587C23.4736 43.3437 31.8534 52.5054 37.3946 52.5054C42.9358 52.5054 51.3156 43.3607 51.3156 29.5587C51.3156 15.6717 43.7347 12.7482 37.3946 12.7482Z" fill="white"/>
<path d="M74.7721 73.0554C74.7721 72.9874 74.7721 72.9194 74.7721 72.8514C73.4293 65.0495 69.8428 60.3922 65.1685 60.3922H64.1316C59.9162 60.3922 56.5847 60.3922 53.2022 55.5649C52.8962 55.14 52.4033 54.885 51.8764 54.885C51.5534 54.885 51.2305 54.987 50.9585 55.174C50.2276 55.6839 50.0577 56.6867 50.5676 57.4006C54.562 63.1288 59.0663 63.6047 63.3327 63.6047C63.6557 63.6047 63.9786 63.6047 64.3016 63.6047H65.1685C67.5481 63.6047 69.6558 66.1544 70.9476 70.5907C71.0156 70.8287 70.9646 71.0836 70.8286 71.2876C70.6757 71.4916 70.4547 71.5936 70.1997 71.5936H4.5893C4.33434 71.5936 4.11337 71.4746 3.96039 71.2876C3.80741 71.0836 3.77342 70.8287 3.84141 70.5907C5.13322 66.1544 7.24091 63.6047 9.63756 63.6047H10.5044C10.8104 63.6047 11.1333 63.6047 11.4563 63.6047C15.9096 63.6047 20.584 63.1288 24.5784 57.4006C25.0883 56.6697 24.9013 55.6669 24.1874 55.174C23.9155 54.987 23.6095 54.885 23.2696 54.885C22.7426 54.885 22.2497 55.14 21.9438 55.5649C18.8162 60.0353 15.4167 60.3922 11.3203 60.3922H9.63756C4.96325 60.3922 1.37677 65.0495 0.0339653 72.8514C0.0339653 72.9194 0.0339653 72.9874 0.0339653 73.0554C0.0339653 73.1063 0.0169678 73.1573 0.0169678 73.1913C0.0339653 73.2423 0.0509628 73.3103 0.0509628 73.3613C0.0679603 73.4803 0.0849579 73.5823 0.118953 73.6673C0.152948 73.7523 0.186943 73.8372 0.237936 73.9392C0.305926 74.0412 0.356918 74.1262 0.407911 74.1942C0.458903 74.2622 0.526893 74.3302 0.628878 74.3982C0.730864 74.4662 0.798854 74.5171 0.866844 74.5681C0.934834 74.6021 1.03682 74.6361 1.1728 74.6871C1.24079 74.7041 1.30878 74.7381 1.39377 74.7721C1.44476 74.7891 1.51275 74.7891 1.58074 74.7891H73.1743H73.1913C73.2593 74.7891 73.3443 74.7891 73.4123 74.7721C73.4802 74.7381 73.5482 74.7041 73.6332 74.6871C73.7692 74.6531 73.8542 74.6191 73.9222 74.5851C74.0072 74.5511 74.0752 74.4831 74.1771 74.4152C74.2791 74.3302 74.3471 74.2792 74.3981 74.2112C74.4491 74.1432 74.5001 74.0752 74.5681 73.9562C74.6191 73.8542 74.6701 73.7692 74.6871 73.6843C74.7211 73.5993 74.7381 73.5143 74.7551 73.3783C74.7551 73.3273 74.7721 73.2593 74.7891 73.2083C74.7891 73.1573 74.7721 73.1063 74.7721 73.0554Z" fill="#0044AF"/>
<path d="M60.9363 24.2385C60.7323 24.1705 60.5793 24.0175 60.4943 23.8475V23.0826C60.4943 15.5357 58.5226 9.73958 54.6472 5.84715C50.7547 1.97171 44.9586 0 37.3947 0C29.8308 0 24.0346 1.97171 20.1592 5.84715C16.2838 9.72258 14.3121 15.5187 14.3121 23.0486V23.8305C14.2271 24.0175 14.0741 24.1535 13.8701 24.2215C11.2865 25.1053 9.53577 27.519 9.53577 30.2216V34.9979C9.53577 38.5164 12.3913 41.372 15.9098 41.372H18.8674H20.6861H22.3349C22.3859 41.4399 22.4369 41.5079 22.4709 41.5929C25.6324 49.8877 31.7685 55.6839 37.3777 55.6839C38.3296 55.6839 39.3154 55.5309 40.2843 55.2079C41.1172 54.936 41.5931 54.0351 41.3211 53.1852C41.1002 52.5223 40.4882 52.0804 39.7913 52.0804C39.6214 52.0804 39.4514 52.1144 39.2984 52.1484C38.6355 52.3524 37.9896 52.4713 37.3777 52.4713C31.8365 52.4713 23.4567 43.3267 23.4567 29.5247C23.4567 15.6377 31.0206 12.7141 37.3777 12.7141C42.103 12.7141 45.6895 14.2609 48.0521 17.3375C48.3581 17.7454 48.817 17.9664 49.327 17.9664C49.6839 17.9664 50.0239 17.8474 50.2958 17.6264C50.6358 17.3715 50.8567 16.9975 50.9077 16.5726C50.9587 16.1476 50.8567 15.7227 50.5848 15.3828C47.6612 11.5753 43.1059 9.55261 37.3947 9.55261C28.539 9.55261 22.6579 14.4139 20.8731 23.2356C20.8051 23.5926 20.4822 23.8645 20.1082 23.8645H18.3065C17.8815 23.8645 17.5246 23.5076 17.5246 23.0826C17.5246 16.2836 19.1224 11.3883 22.4199 8.10782C25.7004 4.8103 30.5957 3.21253 37.3947 3.21253C44.1937 3.21253 49.089 4.8103 52.3865 8.10782C55.684 11.4053 57.2818 16.3006 57.2818 23.0826C57.2818 23.5076 56.9249 23.8645 56.4999 23.8645H55.5141L52.6925 23.8475H52.6755H52.6585C52.6075 23.8475 52.5565 23.8475 52.4885 23.8645C51.6046 23.9665 50.9927 24.7654 51.0947 25.6493C51.2477 26.8731 51.3157 28.1819 51.3157 29.5587C51.3157 32.8902 50.7887 36.1707 49.7689 39.2813C49.6329 39.6892 49.6669 40.1141 49.8539 40.5051C50.0409 40.879 50.3808 41.168 50.7887 41.304C50.9247 41.355 51.0607 41.372 51.1967 41.389H51.2307H51.2477H51.2647H51.8596H52.3865H56.4999C56.9249 41.389 57.2818 41.7459 57.2818 42.1708C57.2818 43.9216 55.854 45.3324 54.1033 45.3324H44.5507C44.1257 45.3324 43.7688 44.9754 43.7688 44.5505V42.1708C43.7688 41.287 43.0549 40.5731 42.171 40.5731C41.2871 40.5731 40.5732 41.287 40.5732 42.1708V46.9471C40.5732 47.831 41.2871 48.5449 42.171 48.5449H54.1033C57.6217 48.5449 60.4773 45.6893 60.4773 42.1708V41.7289C60.4773 41.406 60.6813 41.1 61.0042 40.998C63.5539 40.0971 65.2536 37.6835 65.2536 35.0149V30.2386C65.2536 27.536 63.5199 25.1223 60.9363 24.2385ZM19.5473 27.06C19.7683 27.06 19.9722 27.145 20.1082 27.298C20.2612 27.451 20.3292 27.655 20.3292 27.8759L20.3122 28.0799C20.2952 28.5898 20.2612 29.0488 20.2612 29.5587C20.2612 32.1253 20.5502 34.7089 21.1281 37.2246C21.1791 37.4625 21.1281 37.7005 20.9751 37.8875C20.8221 38.0744 20.6012 38.1764 20.3632 38.1764H15.9098C14.1591 38.1764 12.7313 36.7486 12.7313 35.0149V30.2386C12.7313 28.4878 14.1591 27.077 15.9098 27.077H19.5473V27.06ZM62.0411 35.0149C62.0411 36.7656 60.6133 38.1764 58.8626 38.1764H54.3922C54.1543 38.1764 53.9333 38.0744 53.7803 37.8875C53.6273 37.7005 53.5763 37.4625 53.6273 37.2246C54.2052 34.6919 54.5112 32.1083 54.5112 29.5587C54.5112 28.9978 54.4942 28.4368 54.4602 27.8929C54.4432 27.672 54.5282 27.468 54.6812 27.315C54.8341 27.162 55.0381 27.077 55.2421 27.077H58.8796C60.6303 27.077 62.0581 28.5048 62.0581 30.2386V35.0149H62.0411Z" fill="#0044AF"/>
</g>
<defs>
<clipPath id="clip0">
<rect width="74.7891" height="74.7891" fill="white"/>
</clipPath>
</defs>
</svg>
