<svg width="75" height="61" viewBox="0 0 75 61" fill="none" xmlns="http://www.w3.org/2000/svg">
<g clip-path="url(#clip0)">
<path d="M10.5044 25.5474H1.29175V58.9815H10.5044V25.5474Z" fill="#FCB808"/>
<path d="M12.0684 36.3407L23.5417 32.6353L32.0914 37.1226L44.5676 37.5985L50.1258 45.6214L68.7381 42.1709L71.5427 42.8168L72.9875 48.052L43.0378 58.9644L28.08 56.2788C28.08 56.2788 12.0684 52.0294 12.0684 51.4685C12.0684 50.8906 12.0684 36.3407 12.0684 36.3407Z" fill="white"/>
<path d="M21.1281 1.75085H68.5851V41.1171L49.038 45.6214L46.9133 39.5703L33.1623 37.4456L25.9384 32.6183H20.5671L21.1281 1.75085Z" fill="#FCB808"/>
<path d="M37.3945 1.75085V22.1479L44.6015 15.7908L51.5195 21.8759V1.88683L37.3945 1.75085Z" fill="white"/>
<path d="M73.9222 43.3947C73.2253 41.7459 72.1035 40.6581 70.5567 40.1481C70.2337 40.0462 70.0128 39.7402 70.0128 39.4002V1.59777C70.0128 0.713896 69.2989 0 68.415 0H20.686C19.8021 0 19.0882 0.713896 19.0882 1.59777V30.2046V30.9695C18.9862 31.1734 18.8163 31.3434 18.5783 31.4114C17.0825 31.7854 15.6037 32.2613 14.1759 32.8732C14.0739 32.9072 13.972 32.9412 13.87 32.9412C13.717 32.9412 13.564 32.8902 13.445 32.8052C13.2241 32.6522 13.0881 32.4143 13.0881 32.1593V25.4793C13.0881 24.5954 12.3742 23.8815 11.4903 23.8815H1.59777C0.713896 23.8645 0 24.5784 0 25.4623V58.8624C0 59.7463 0.713896 60.4602 1.59777 60.4602H11.4733C12.3572 60.4602 13.0711 59.7463 13.0711 58.8624V54.2221C13.0711 53.9671 13.1901 53.7292 13.394 53.5932C13.53 53.4912 13.683 53.4402 13.853 53.4402C13.938 53.4402 14.023 53.4572 14.0909 53.4742C20.618 55.5819 36.3577 60.4772 41.6779 60.4772C47.3551 60.4772 67.6841 53.1002 73.4973 49.3778C74.0752 49.0038 75.8259 47.882 73.9222 43.3947ZM9.87556 56.4828C9.87556 56.9077 9.51861 57.2646 9.09367 57.2646H3.99442C3.56948 57.2646 3.21253 56.9077 3.21253 56.4828V27.8589C3.21253 27.434 3.56948 27.077 3.99442 27.077H9.09367C9.51861 27.077 9.87556 27.434 9.87556 27.8589V56.4828ZM38.9923 3.99442C38.9923 3.56948 39.3493 3.21253 39.7742 3.21253H49.3268C49.7517 3.21253 50.1087 3.56948 50.1087 3.99442V17.3205C50.1087 17.6434 49.9217 17.9154 49.6328 18.0514C49.5308 18.0854 49.4288 18.1194 49.3268 18.1194C49.1228 18.1194 48.9189 18.0344 48.7659 17.8984L45.6893 14.7878C45.3834 14.4819 44.9924 14.3119 44.5505 14.3119C44.1256 14.3119 43.7176 14.4819 43.4117 14.7878L40.3351 17.8814C40.1821 18.0344 39.9782 18.1024 39.7742 18.1024C39.6722 18.1024 39.5702 18.0854 39.4682 18.0344C39.1793 17.9154 38.9923 17.6264 38.9923 17.3035V3.99442ZM22.3007 3.99442C22.3007 3.56948 22.6577 3.21253 23.0826 3.21253H35.0149C35.4398 3.21253 35.7968 3.56948 35.7968 3.99442V23.0826C35.7968 23.7285 36.1877 24.3234 36.7826 24.5614C36.9866 24.6464 37.1906 24.6804 37.3945 24.6804C37.8195 24.6804 38.2274 24.5104 38.5334 24.2045L44.0066 18.7313C44.1596 18.5783 44.3465 18.5103 44.5675 18.5103C44.7715 18.5103 44.9754 18.5953 45.1284 18.7313L50.6016 24.2045C50.9076 24.5104 51.3155 24.6804 51.7405 24.6804C51.9444 24.6804 52.1654 24.6464 52.3524 24.5614C52.9473 24.3065 53.3382 23.7285 53.3382 23.0826V3.99442C53.3382 3.56948 53.6952 3.21253 54.1201 3.21253H66.0524C66.4773 3.21253 66.8342 3.56948 66.8342 3.99442V39.3153C66.8342 39.6892 66.5623 40.0122 66.2053 40.0801C66.0864 40.0971 65.9674 40.1141 65.8654 40.1481C65.7294 40.1651 65.5764 40.1991 65.4235 40.2331C64.0637 40.5731 62.6699 40.964 61.3101 41.355L61.1741 41.389C57.9955 42.2728 54.732 43.2077 51.4515 43.6836C51.4175 43.6836 51.3665 43.6836 51.3325 43.6836C50.9586 43.6836 50.6186 43.4117 50.5676 43.0207L50.5506 42.8677C50.5336 42.7658 50.5166 42.6638 50.4996 42.5448C49.8027 39.5362 46.8962 36.3067 40.7771 36.3067C39.9952 36.3067 39.1623 36.3577 38.3124 36.4597C37.4795 36.5617 36.6976 36.6297 36.0177 36.6297C32.5333 36.6297 31.3434 35.2189 30.1876 33.8251C29.5077 33.0092 28.7938 32.1593 27.706 31.6324C26.5331 31.0715 25.1053 30.7995 23.3546 30.7995H23.1166C22.9127 30.7995 22.7087 30.7145 22.5727 30.5785C22.4197 30.4256 22.3347 30.2386 22.3347 30.0176V3.99442H22.3007ZM71.1346 47.0661C64.7436 50.7886 46.0293 57.2816 41.6779 57.2816C36.1877 57.2816 15.9097 50.7036 13.615 49.9557C13.2921 49.8537 13.0711 49.5478 13.0711 49.2078V37.4285C13.0711 37.1396 13.2241 36.8846 13.479 36.7486C16.5726 35.0659 20.431 33.978 23.3036 33.978C24.4934 33.978 25.4963 34.165 26.2782 34.539C26.7371 34.7599 27.179 35.2868 27.689 35.8988C29.0828 37.5645 30.9695 39.8422 36.0857 39.8422C36.9016 39.8422 37.7685 39.7912 38.6864 39.6722C39.4342 39.5702 40.1481 39.5362 40.811 39.5362C43.3947 39.5362 45.3494 40.2331 46.4712 41.5759C47.2021 42.4428 47.3721 43.3097 47.4231 43.7346C47.4571 44.0916 47.2531 44.4145 46.9132 44.5505C46.6072 44.6695 46.2842 44.7885 45.9443 44.9244L45.9103 44.9414C44.3465 45.5534 41.7119 46.5732 40.2331 46.5732C40.0122 46.5732 39.8082 46.5562 39.6382 46.5052C38.8563 46.3012 39.7912 46.5392 35.4398 45.4004H35.4228C34.199 45.0774 32.6012 44.6695 30.3916 44.0916C29.3037 43.8026 28.0969 43.4967 26.7541 43.1567C25.9042 42.9357 25.0203 43.4457 24.7994 44.3125C24.5784 45.1624 25.0883 46.0463 25.9382 46.2672C28.4199 46.9132 32.4653 47.967 35.4398 48.7319C36.7656 49.0718 37.9895 49.3948 38.8563 49.6158C39.2473 49.7177 39.6892 49.7687 40.1651 49.7687C42.3408 49.7687 44.9924 48.7489 47.1171 47.916L47.1851 47.899C47.763 47.678 48.3239 47.4571 48.7999 47.3041C48.8509 47.2871 48.9019 47.2531 48.9529 47.2361C49.0208 47.2021 49.1058 47.1851 49.1908 47.1851C53.7462 46.8622 58.3525 45.5703 62.0579 44.5335C63.4177 44.1426 64.8285 43.7516 66.2223 43.3947C67.0892 43.1737 67.8201 43.0547 68.432 43.0547C70.3187 43.0547 70.7947 44.1596 71.0156 44.7035C71.2706 45.3324 71.4576 45.8593 71.5596 46.2672C71.5936 46.5392 71.4406 46.8792 71.1346 47.0661Z" fill="#0044AF"/>
</g>
<defs>
<clipPath id="clip0">
<rect width="74.7891" height="60.4772" fill="white"/>
</clipPath>
</defs>
</svg>
