<svg width="75" height="71" viewBox="0 0 75 71" fill="none" xmlns="http://www.w3.org/2000/svg">
<g clip-path="url(#clip0)">
<path d="M72.7834 30.5444H1.25781V66.8171H72.7834V30.5444Z" fill="#FCB808"/>
<path d="M73.2762 16.9294H1.59766V24.6803H73.2762V16.9294Z" fill="#FCB808"/>
<path d="M73.2762 2.61768H1.59766V10.3685H73.2762V2.61768Z" fill="#FCB808"/>
<path d="M37.3947 67.5652C46.0311 67.5652 53.0324 59.3996 53.0324 49.3268C53.0324 39.2541 46.0311 31.0885 37.3947 31.0885C28.7582 31.0885 21.757 39.2541 21.757 49.3268C21.757 59.3996 28.7582 67.5652 37.3947 67.5652Z" fill="white"/>
<path d="M23.8816 10.3685H50.9076C49.1739 6.90105 46.5053 4.14745 43.2928 2.61768H31.4965C28.2839 4.14745 25.6153 6.88405 23.8816 10.3685Z" fill="white"/>
<path d="M23.8477 24.6803H50.9417C49.2419 21.2298 46.6073 18.4762 43.4458 16.9294H31.3606C28.182 18.4762 25.5474 21.2298 23.8477 24.6803Z" fill="white"/>
<path d="M37.3946 62.8569C36.5107 62.8569 35.7968 62.143 35.7968 61.2592V60.9192C35.7968 60.5793 35.5759 60.2733 35.2529 60.1713C33.3492 59.5764 31.8024 58.1656 31.1395 56.3809C30.9865 55.9729 31.0035 55.548 31.1735 55.1571C31.3435 54.7661 31.6664 54.4601 32.0744 54.3242C32.2614 54.2562 32.4483 54.2222 32.6353 54.2222C33.2982 54.2222 33.8931 54.6471 34.1311 55.259C34.573 56.4319 35.8648 57.2307 37.3436 57.2307C38.2275 57.2307 39.0264 56.9418 39.6043 56.3979C40.0462 56.0069 40.5561 55.31 40.5561 54.3072C40.5561 52.5734 38.2105 51.3836 36.7997 50.8397C31.7684 48.851 31.0035 45.9444 31.0035 44.3806C31.0035 42.6809 31.7174 41.0831 33.0092 39.9103C33.6212 39.3494 34.386 38.9074 35.2529 38.6015C35.5589 38.4825 35.7798 38.1935 35.7798 37.8706V37.3946C35.7798 36.5108 36.4937 35.7969 37.3776 35.7969C38.2615 35.7969 38.9754 36.5108 38.9754 37.3946V37.7346C38.9754 38.0745 39.1963 38.3805 39.5193 38.4825C41.423 39.0774 42.9698 40.4882 43.6327 42.2729C43.7857 42.6809 43.7687 43.1058 43.5987 43.4968C43.4287 43.8877 43.1058 44.1937 42.6978 44.3296C42.5109 44.3976 42.3239 44.4316 42.1369 44.4316C41.474 44.4316 40.8791 44.0067 40.6411 43.3948C40.1992 42.2219 38.9074 41.4401 37.4286 41.4401C36.5447 41.4401 35.7458 41.729 35.1509 42.2559C34.539 42.8169 34.1991 43.5647 34.1991 44.3466C34.1991 46.0804 36.5447 47.2702 37.9555 47.8141C42.9868 49.8028 43.7517 52.7094 43.7517 54.2732C43.7517 55.9729 43.0378 57.5707 41.746 58.7435C41.1341 59.3044 40.3692 59.7464 39.5023 60.0523C39.1963 60.1713 38.9754 60.4603 38.9754 60.7832V61.2422C38.9924 62.143 38.2785 62.8569 37.3946 62.8569Z" fill="#0044AF"/>
<path d="M73.1913 28.6407H1.59777C0.713896 28.6407 0 29.3546 0 30.2385V68.4149C0 69.2988 0.713896 70.0127 1.59777 70.0127H73.1743C74.0582 70.0127 74.7721 69.2988 74.7721 68.4149V30.2385C74.7891 29.3546 74.0752 28.6407 73.1913 28.6407ZM3.99442 66.8172C3.56948 66.8172 3.21253 66.4602 3.21253 66.0353V32.6182C3.21253 32.1932 3.56948 31.8363 3.99442 31.8363H25.4283C25.7512 31.8363 26.0402 32.0403 26.1592 32.3292C26.2782 32.6352 26.1932 32.9751 25.9552 33.1961C21.5868 37.1565 19.0882 43.0376 19.0882 49.3267C19.0882 56.6867 22.5217 63.1457 27.655 66.8172H3.99442ZM37.3945 66.8172C29.0658 66.8172 22.3007 58.9813 22.3007 49.3267C22.3007 39.6891 29.0828 31.8363 37.3945 31.8363C45.7063 31.8363 52.4883 39.6721 52.4883 49.3267C52.4883 58.9643 45.7233 66.8172 37.3945 66.8172ZM71.5766 66.0353C71.5766 66.4602 71.2196 66.8172 70.7947 66.8172H47.1341C52.2674 63.1457 55.7009 56.6867 55.7009 49.3267C55.7009 43.0376 53.2022 37.1735 48.8339 33.1961C48.5959 32.9751 48.5109 32.6352 48.6299 32.3292C48.7489 32.0233 49.0378 31.8363 49.3608 31.8363H70.7947C71.2196 31.8363 71.5766 32.1932 71.5766 32.6182V66.0353Z" fill="#0044AF"/>
<path d="M65.2535 47.7289H62.041V50.9414H65.2535V47.7289Z" fill="#0044AF"/>
<path d="M12.7654 47.7289H9.55286V50.9414H12.7654V47.7289Z" fill="#0044AF"/>
<path d="M50.4316 24.6805C49.9047 24.6805 49.4118 24.4255 49.1228 24.0006C46.2332 19.8872 41.9669 17.5245 37.4115 17.5245C32.8562 17.5245 28.5898 19.8872 25.7002 24.0006C25.3943 24.4255 24.9014 24.6805 24.3914 24.6805C24.0685 24.6805 23.7455 24.5785 23.4736 24.3915C22.7427 23.8816 22.5727 22.8787 23.0826 22.1648C23.9325 20.958 24.8844 19.8702 25.9552 18.8843C26.1932 18.6633 26.2782 18.3234 26.1592 18.0174C26.0402 17.7115 25.7512 17.5245 25.4283 17.5245H3.99442C3.56948 17.5245 3.21253 17.8815 3.21253 18.3064V23.0827C3.21253 23.9666 2.49864 24.6805 1.61476 24.6805C0.713896 24.6805 0 23.9666 0 23.0827V15.9267C0 15.0429 0.713896 14.329 1.59777 14.329H73.1743C74.0582 14.329 74.7721 15.0429 74.7721 15.9267V23.0827C74.7721 23.9666 74.0582 24.6805 73.1743 24.6805C72.2904 24.6805 71.5766 23.9666 71.5766 23.0827V18.3064C71.5766 17.8815 71.2196 17.5245 70.7947 17.5245H49.3778C49.0548 17.5245 48.7659 17.7285 48.6469 18.0174C48.5279 18.3234 48.6129 18.6633 48.8509 18.8843C49.9217 19.8532 50.8906 20.958 51.7234 22.1478C52.2334 22.8787 52.0634 23.8816 51.3325 24.3745C51.0775 24.5785 50.7546 24.6805 50.4316 24.6805Z" fill="#0044AF"/>
<path d="M73.1913 10.3685C72.3074 10.3685 71.5936 9.65459 71.5936 8.77072V3.99442C71.5936 3.56948 71.2366 3.21253 70.8117 3.21253H49.3948C49.0718 3.21253 48.7829 3.4165 48.6639 3.70546C48.5449 4.01141 48.6299 4.35137 48.8679 4.57233C49.9387 5.54119 50.9076 6.64603 51.7405 7.83586C52.2504 8.56675 52.0804 9.5696 51.3495 10.0625C51.0775 10.2495 50.7546 10.3515 50.4316 10.3515C49.9047 10.3515 49.4118 10.0965 49.1228 9.67159C46.2333 5.55819 41.9669 3.19553 37.4115 3.19553C32.8562 3.19553 28.5898 5.55819 25.7002 9.67159C25.3943 10.0965 24.9014 10.3515 24.3914 10.3515C24.0685 10.3515 23.7455 10.2495 23.4736 10.0625C22.7427 9.55261 22.5727 8.54975 23.0826 7.83586C23.9325 6.62903 24.8844 5.54119 25.9552 4.55534C26.1932 4.33437 26.2782 3.99442 26.1592 3.68846C26.0232 3.3995 25.7172 3.21253 25.3943 3.21253H3.99442C3.56948 3.21253 3.21253 3.56948 3.21253 3.99442V8.77072C3.21253 9.65459 2.49864 10.3685 1.61476 10.3685C0.713896 10.3685 0 9.63759 0 8.75372V1.59777C0 0.713896 0.713896 0 1.59777 0H73.1743C74.0752 0 74.7891 0.713896 74.7891 1.59777V8.75372C74.7891 9.63759 74.0752 10.3685 73.1913 10.3685Z" fill="#0044AF"/>
</g>
<defs>
<clipPath id="clip0">
<rect width="74.7891" height="70.0128" fill="white"/>
</clipPath>
</defs>
</svg>
