<svg width="71" height="72" viewBox="0 0 71 72" fill="none" xmlns="http://www.w3.org/2000/svg">
<g clip-path="url(#clip0)">
<path d="M66.6984 18.3744L38.0746 30.3066C37.7856 30.4256 37.5986 30.7146 37.5986 31.0375V64.8456C37.5986 65.1005 37.7346 65.3555 37.9556 65.4915C38.0916 65.5765 38.2445 65.6275 38.3975 65.6275C38.4995 65.6275 38.6015 65.6105 38.7035 65.5595L67.3273 53.6272C67.6163 53.5082 67.8032 53.2193 67.8032 52.8963V19.1053C67.8032 18.8503 67.6672 18.5953 67.4633 18.4593C67.3273 18.3744 67.1743 18.3234 67.0213 18.3234C66.9024 18.3234 66.8004 18.3404 66.6984 18.3744Z" fill="#FCB808"/>
<path d="M5.26909 18.3744L33.8929 30.3066C34.1819 30.4256 34.3688 30.7146 34.3688 31.0375V64.8456C34.3688 65.1005 34.2329 65.3555 34.0289 65.4915C33.8929 65.5765 33.7399 65.6275 33.587 65.6275C33.485 65.6275 33.383 65.6105 33.281 65.5595L4.67417 53.6272C4.38521 53.5082 4.19824 53.2193 4.19824 52.8963V19.1053C4.19824 18.8503 4.33422 18.5953 4.53819 18.4593C4.67417 18.3744 4.82715 18.3234 4.98013 18.3234C5.08211 18.3234 5.1841 18.3404 5.26909 18.3744Z" fill="#FCB808"/>
<path d="M4.96318 14.363L36.6126 1.3429L68.1769 15.4168L35.9837 29.4908L3.89233 15.6888L4.96318 14.363Z" fill="white"/>
<path d="M53.168 51.3325C52.5221 51.3325 51.9442 50.9415 51.6892 50.3466C51.5193 49.9557 51.5193 49.5137 51.6892 49.1228C51.8592 48.7319 52.1652 48.4259 52.5561 48.2559L57.7744 46.0802C58.0633 45.9613 58.2503 45.6723 58.2503 45.3493V39.7742C58.2503 38.8903 58.9642 38.1764 59.8481 38.1764C60.7319 38.1764 61.4458 38.8903 61.4458 39.7742V46.3862C61.4288 46.4712 61.4118 46.5392 61.3948 46.6072C61.3948 46.6582 61.3948 46.7091 61.3948 46.7601C61.4628 47.474 61.0889 48.1369 60.46 48.3919L53.7799 51.1795C53.593 51.2815 53.372 51.3325 53.168 51.3325Z" fill="#0044AF"/>
<path d="M70.9816 15.5017C70.9816 15.3488 70.9476 15.1788 70.8626 14.9578C70.8456 14.9238 70.8456 14.9068 70.8286 14.8728C70.7437 14.7029 70.6587 14.5669 70.5567 14.4479C70.5227 14.4309 70.5057 14.3969 70.4717 14.3799L70.4207 14.3289C70.3697 14.2779 70.3017 14.2269 70.2677 14.1929C70.2167 14.1589 70.1657 14.1419 70.1317 14.1249L70.0468 14.0909C69.9958 14.0739 69.9618 14.04 69.9278 14.023L36.5956 0.118983C36.4087 0.033995 36.2047 0 35.9837 0C35.7628 0 35.5588 0.033995 35.3718 0.118983L2.03969 14.006C2.00569 14.04 1.9717 14.0569 1.9207 14.0739L1.83572 14.1249C1.78472 14.1419 1.73373 14.1589 1.69974 14.1929C1.64874 14.2099 1.59775 14.2779 1.52976 14.3289L1.49577 14.3629C1.46177 14.3969 1.44477 14.4139 1.41078 14.4479C1.2918 14.5499 1.20681 14.7029 1.13882 14.8728C1.12182 14.8898 1.10482 14.9238 1.08782 14.9748C1.01983 15.1788 0.98584 15.3488 0.98584 15.4847C0.98584 15.5017 0.98584 15.5357 0.98584 15.5697V37.3945C0.98584 38.2784 1.69974 38.9923 2.58361 38.9923C3.46748 38.9923 4.18137 38.2784 4.18137 37.3945V19.1052C4.18137 18.8502 4.31735 18.5953 4.53832 18.4593C4.6743 18.3743 4.82728 18.3233 4.98026 18.3233C5.08224 18.3233 5.18423 18.3403 5.28621 18.3913L33.927 30.3236C34.216 30.4426 34.403 30.7315 34.403 31.0545V68.432C34.403 68.602 34.437 68.772 34.5219 68.9929L34.5389 69.0439C34.5389 69.0609 34.5559 69.0779 34.5559 69.0949C34.6409 69.2649 34.7259 69.4179 34.8449 69.5199C35.0319 69.7238 35.2528 69.8428 35.5078 69.9278C35.6608 69.9788 35.8308 70.0298 36.0007 70.0298C36.2047 70.0298 36.4257 69.9958 36.6296 69.8938L70.0128 55.9728C70.6077 55.7179 70.9986 55.14 70.9986 54.494V15.5697C70.9986 15.5357 70.9816 15.5187 70.9816 15.5017ZM25.6322 7.64888L35.6948 3.4505C35.7798 3.4165 35.8817 3.3995 35.9837 3.3995C36.0857 3.3995 36.1877 3.4165 36.2897 3.46749L63.4857 14.8048C63.7747 14.9238 63.9617 15.2128 63.9617 15.5357C63.9617 15.8587 63.7747 16.1306 63.4857 16.2666L53.8311 20.295C53.2702 20.499 52.6413 20.448 52.1144 20.1591L25.6322 9.09367C25.3433 8.97469 25.1563 8.68573 25.1563 8.36278C25.1563 8.03983 25.3433 7.76787 25.6322 7.64888ZM36.2897 27.587C36.1877 27.621 36.0857 27.655 35.9837 27.655C35.8817 27.655 35.7798 27.638 35.6778 27.587L8.48175 16.2496C8.19279 16.1136 8.00582 15.8417 8.00582 15.5187C8.00582 15.1958 8.19279 14.9238 8.48175 14.7878L19.4282 10.2325C19.5301 10.1985 19.6321 10.1645 19.7341 10.1645C19.8361 10.1645 19.9381 10.1985 20.0231 10.2325L47.2191 21.5699C47.5081 21.6888 47.695 21.9778 47.695 22.3007C47.695 22.6237 47.5081 22.8957 47.2191 23.0316L36.2897 27.587ZM67.7861 52.8963C67.7861 53.2192 67.5991 53.4912 67.3102 53.6272L38.6693 65.5594C38.5674 65.5934 38.4654 65.6274 38.3634 65.6274C38.2104 65.6274 38.0574 65.5764 37.9214 65.4914C37.7005 65.3385 37.5815 65.1005 37.5815 64.8455V31.0375C37.5815 30.7145 37.7685 30.4426 38.0574 30.3066L66.6982 18.3743C66.8002 18.3403 66.9022 18.3063 67.0042 18.3063C67.1572 18.3063 67.3102 18.3573 67.4461 18.4423C67.6671 18.5953 67.8031 18.8333 67.8031 19.0882V52.8963H67.7861Z" fill="#0044AF"/>
<path d="M15.6205 70.3528C23.4027 70.3528 29.7114 64.0441 29.7114 56.2618C29.7114 48.4796 23.4027 42.1709 15.6205 42.1709C7.83827 42.1709 1.52954 48.4796 1.52954 56.2618C1.52954 64.0441 7.83827 70.3528 15.6205 70.3528Z" fill="white" stroke="#0044AF" stroke-width="3.05955" stroke-miterlimit="10"/>
<path d="M8.51589 57.1287C8.00596 56.7887 7.61502 56.3128 7.32606 55.7009C7.0371 55.089 6.90112 54.4261 6.90112 53.6952C6.90112 52.9473 7.0371 52.2674 7.32606 51.6725C7.61502 51.0606 8.00596 50.5846 8.51589 50.2447C9.02581 49.9047 9.60373 49.7178 10.2496 49.7178C10.8955 49.7178 11.4735 49.8877 11.9834 50.2447C12.4933 50.5846 12.8842 51.0606 13.1562 51.6725C13.4282 52.2844 13.5811 52.9473 13.5811 53.6952C13.5811 54.4261 13.4282 55.106 13.1392 55.7009C12.8503 56.3128 12.4423 56.7887 11.9324 57.1287C11.4225 57.4686 10.8615 57.6556 10.2496 57.6556C9.58673 57.6386 9.02581 57.4686 8.51589 57.1287ZM11.1675 55.225C11.4055 54.817 11.5075 54.3071 11.5075 53.6782C11.5075 53.0323 11.3885 52.5224 11.1675 52.1314C10.9465 51.7405 10.6236 51.5365 10.2156 51.5365C9.8247 51.5365 9.50174 51.7405 9.26378 52.1314C9.02581 52.5394 8.90683 53.0493 8.90683 53.6782C8.90683 54.3071 9.02581 54.817 9.24678 55.225C9.48475 55.6329 9.7907 55.8199 10.1986 55.8199C10.6236 55.8199 10.9465 55.6329 11.1675 55.225ZM9.75671 63.9277C9.51874 63.7407 9.41676 63.5028 9.41676 63.2138C9.41676 63.0438 9.48475 62.8399 9.62073 62.6019L17.7455 50.3467C17.9835 50.0237 18.2725 49.8538 18.5784 49.8538C18.8164 49.8538 19.0543 49.9557 19.2923 50.1427C19.5303 50.3297 19.6323 50.5676 19.6323 50.8566C19.6323 51.0266 19.5643 51.2306 19.4283 51.4685L11.3035 63.7237C11.0655 64.0467 10.7766 64.2167 10.4706 64.2167C10.2326 64.2167 9.99467 64.1147 9.75671 63.9277ZM17.3036 63.8597C16.7937 63.5198 16.3857 63.0438 16.0968 62.4319C15.7908 61.82 15.6548 61.1571 15.6548 60.4262C15.6548 59.6783 15.7908 58.9984 16.0798 58.4035C16.3687 57.7916 16.7597 57.3157 17.2696 56.9757C17.7795 56.6358 18.3575 56.4488 19.0034 56.4488C19.6493 56.4488 20.2272 56.6188 20.7371 56.9757C21.247 57.3157 21.638 57.7916 21.9099 58.4035C22.1819 59.0154 22.3349 59.6783 22.3349 60.4262C22.3349 61.1571 22.1819 61.837 21.8929 62.4319C21.604 63.0438 21.196 63.5198 20.6861 63.8597C20.1762 64.1997 19.6153 64.3866 19.0034 64.3866C18.3914 64.3866 17.8135 64.1997 17.3036 63.8597ZM19.9212 61.956C20.1592 61.548 20.2612 61.0381 20.2612 60.4092C20.2612 59.7633 20.1422 59.2534 19.9212 58.8624C19.7003 58.4715 19.3773 58.2675 18.9694 58.2675C18.5784 58.2675 18.2555 58.4715 18.0175 58.8624C17.7795 59.2704 17.6606 59.7803 17.6606 60.4092C17.6606 61.0381 17.7795 61.548 18.0005 61.956C18.2385 62.3639 18.5444 62.5509 18.9524 62.5509C19.3773 62.5509 19.7003 62.3639 19.9212 61.956Z" fill="#0044AF"/>
</g>
<defs>
<clipPath id="clip0">
<rect width="70.9986" height="71.8825" fill="white"/>
</clipPath>
</defs>
</svg>
