<svg width="75" height="59" viewBox="0 0 75 59" fill="none" xmlns="http://www.w3.org/2000/svg">
<g clip-path="url(#clip0)">
<path d="M44.3465 1.59766H0V47.032H44.3465V1.59766Z" fill="#FCB808"/>
<path d="M45.4172 46.1142H73.5311L73.0382 30.3235L59.4742 29.0487L58.8623 16.5045L55.9727 17.5244H45.4172V46.1142Z" fill="white"/>
<path d="M60.0012 15.9437H66.4433L72.2564 29.0488H60.0012V15.9437Z" fill="#FCB808"/>
<path d="M64.7264 49.3268C64.7264 52.5564 62.1088 55.174 58.8792 55.174C55.6497 55.174 53.0321 52.5564 53.0321 49.3268C53.0321 46.0973 55.6497 43.4797 58.8792 43.4797C62.1088 43.4627 64.7264 46.0973 64.7264 49.3268Z" fill="white"/>
<path d="M21.7736 49.3268C21.7736 52.5564 19.156 55.174 15.9265 55.174C12.697 55.174 10.0793 52.5564 10.0793 49.3268C10.0793 46.0973 12.697 43.4797 15.9265 43.4797C19.156 43.4627 21.7736 46.0973 21.7736 49.3268Z" fill="white"/>
<path d="M74.6361 29.5757C74.6191 29.5247 74.6021 29.4737 74.5851 29.4397L67.4632 15.2128C67.1912 14.6689 66.6473 14.3289 66.0354 14.3289H46.1483V1.59777C46.1483 0.713896 45.4344 0 44.5505 0H1.59777C0.713896 0 0 0.713896 0 1.59777C0 2.48164 0.713896 3.19553 1.59777 3.19553H42.1538C42.5788 3.19553 42.9357 3.55248 42.9357 3.97742V44.5335C42.9357 44.9584 42.5788 45.3154 42.1538 45.3154H24.1365C23.8645 45.3154 23.5926 45.1454 23.4396 44.9074C23.4056 44.8734 23.3886 44.8395 23.3716 44.7885C23.2186 44.5335 23.0656 44.3125 22.9127 44.0916C22.7937 43.9216 22.6407 43.7516 22.4707 43.5646C22.2158 43.2757 21.9608 43.0207 21.7058 42.7828C21.5359 42.6298 21.2979 42.4258 21.0429 42.2388C20.873 42.1029 20.686 41.9839 20.499 41.8819C20.2101 41.7119 19.9211 41.5419 19.5981 41.389L19.4792 41.338C19.3602 41.287 19.2412 41.219 19.1222 41.185C18.7483 41.032 18.3403 40.913 17.8814 40.794C17.7454 40.76 17.5924 40.7261 17.4395 40.7091C16.8445 40.6071 16.3516 40.5561 15.8927 40.5561C15.4337 40.5561 14.9408 40.6071 14.3459 40.7091C14.1929 40.7431 14.0569 40.76 13.904 40.794C13.445 40.896 13.0541 41.032 12.6632 41.185C12.5272 41.236 12.3912 41.304 12.2722 41.372L12.1702 41.423C11.8473 41.5759 11.5583 41.7289 11.2864 41.8989C11.0824 42.0179 10.9124 42.1368 10.7424 42.2728C10.5215 42.4428 10.3005 42.6298 10.1135 42.7998C9.84156 43.0377 9.5696 43.3097 9.31464 43.6156L9.28065 43.6496C9.14466 43.8026 9.00869 43.9556 8.8897 44.1256C8.73672 44.3465 8.58375 44.5675 8.43077 44.8225C8.41377 44.8565 8.37978 44.9074 8.34578 44.9584C8.2098 45.1964 7.95484 45.3494 7.66588 45.3494H1.59777C0.713896 45.3324 0 46.0633 0 46.9471C0 47.831 0.713896 48.5449 1.59777 48.5449H6.37407C6.79901 48.5449 7.15596 48.9019 7.15596 49.3268C7.15596 54.1541 11.0824 58.0805 15.9097 58.0805C20.737 58.0805 24.6634 54.1541 24.6634 49.3268C24.6634 48.9019 25.0203 48.5449 25.4453 48.5449H49.3098C49.7347 48.5449 50.0917 48.9019 50.0917 49.3268C50.0917 54.1541 54.0181 58.0805 58.8454 58.0805C63.6727 58.0805 67.5991 54.1541 67.5991 49.3268C67.5991 48.9019 67.9561 48.5449 68.381 48.5449H73.1573C74.0412 48.5449 74.7551 47.831 74.7551 46.9471V30.2386C74.7891 30.0176 74.7381 29.7966 74.6361 29.5757ZM15.9267 54.885C12.8671 54.885 10.3685 52.3864 10.3685 49.3268C10.3685 48.7489 10.4705 48.154 10.7084 47.4911C10.7254 47.4571 10.7254 47.4401 10.7424 47.4061C11.3203 45.8423 12.5442 44.6355 14.1419 44.0746C14.2269 44.0406 14.3119 44.0236 14.3799 44.0066C14.9238 43.8366 15.4337 43.7686 15.9267 43.7686C16.4196 43.7686 16.9295 43.8536 17.4734 44.0066C17.5584 44.0236 17.6434 44.0576 17.7284 44.0916C19.3092 44.6525 20.533 45.8423 21.1109 47.4231C21.1279 47.4571 21.1449 47.4911 21.1619 47.5251C21.3829 48.154 21.4849 48.7489 21.4849 49.3268C21.4679 52.3864 18.9862 54.885 15.9267 54.885ZM60.4772 18.3063C60.4772 17.8814 60.8341 17.5244 61.2591 17.5244H64.5566C64.8455 17.5244 65.1175 17.6944 65.2535 17.9494L70.0298 27.485C70.1488 27.723 70.1318 28.0119 69.9958 28.2499C69.8598 28.4878 69.6048 28.6238 69.3329 28.6238H61.2591C60.8341 28.6238 60.4772 28.2669 60.4772 27.8419V18.3063ZM58.8624 54.885C55.8029 54.885 53.3042 52.3864 53.3042 49.3268C53.3042 48.7489 53.4062 48.154 53.6442 47.4911C53.6612 47.4571 53.6612 47.4401 53.6782 47.4061C54.2561 45.8423 55.4799 44.6355 57.0777 44.0746C57.1627 44.0406 57.2476 44.0236 57.3156 44.0066C57.8596 43.8366 58.3695 43.7686 58.8624 43.7686C59.3553 43.7686 59.8653 43.8536 60.4092 44.0066C60.4942 44.0236 60.5792 44.0576 60.6641 44.0916C62.2449 44.6525 63.4687 45.8423 64.0467 47.4231C64.0636 47.4571 64.0806 47.4911 64.0976 47.5251C64.3186 48.154 64.4206 48.7489 64.4206 49.3268C64.4206 52.3864 61.939 54.885 58.8624 54.885ZM71.5766 44.5505C71.5766 44.9754 71.2196 45.3324 70.7947 45.3324H67.1062C66.8172 45.3324 66.5623 45.1624 66.4093 44.9244C66.3753 44.8904 66.3583 44.8565 66.3413 44.8055C66.1883 44.5505 66.0354 44.3295 65.8824 44.1086C65.7634 43.9386 65.6104 43.7686 65.4404 43.5816C65.1855 43.2927 64.9305 43.0377 64.6756 42.7998C64.5056 42.6468 64.2676 42.4428 64.0127 42.2558C63.8427 42.1199 63.6557 42.0009 63.4687 41.8989C63.1798 41.7289 62.8908 41.5589 62.5679 41.406L62.4489 41.355C62.3299 41.304 62.2109 41.236 62.0919 41.202C61.718 41.049 61.31 40.93 60.8511 40.811C60.7151 40.777 60.5622 40.743 60.4092 40.7261C59.8143 40.6241 59.3213 40.5731 58.8624 40.5731C58.4035 40.5731 57.9105 40.6241 57.3156 40.7261C57.1627 40.76 57.0267 40.777 56.8737 40.811C56.4148 40.913 56.0238 41.049 55.6329 41.202C55.4969 41.253 55.3609 41.321 55.2419 41.389L55.1399 41.4399C54.817 41.5929 54.528 41.7459 54.2561 41.9159C54.0521 42.0349 53.8821 42.1538 53.7122 42.2898C53.4912 42.4598 53.2702 42.6468 53.0832 42.8167C52.8113 43.0547 52.5393 43.3267 52.2844 43.6326L52.2504 43.6666C52.1144 43.8196 51.9784 43.9726 51.8594 44.1426C51.7065 44.3635 51.5535 44.5845 51.4005 44.8395C51.3835 44.8734 51.3495 44.9244 51.3155 44.9754C51.1795 45.2134 50.9246 45.3664 50.6356 45.3664H46.9471C46.5222 45.3664 46.1653 45.0094 46.1653 44.5845V17.5584H56.4998C56.9247 17.5584 57.2816 17.9154 57.2816 18.3403V30.2726C57.2816 31.1565 57.9955 31.8703 58.8794 31.8703H70.8117C71.2366 31.8703 71.5935 32.2273 71.5935 32.6522V44.5505H71.5766Z" fill="#0044AF"/>
<path d="M1.59777 15.1279H25.4623C26.3462 15.1279 27.06 14.414 27.06 13.5301C27.06 12.6463 26.3462 11.9324 25.4623 11.9324H1.59777C0.713896 11.9324 0 12.6463 0 13.5301C0 14.414 0.713896 15.1279 1.59777 15.1279Z" fill="#0044AF"/>
<path d="M1.59777 24.6803H25.4623C26.3462 24.6803 27.06 23.9664 27.06 23.0826C27.06 22.1987 26.3462 21.4848 25.4623 21.4848H1.59777C0.713896 21.4678 0 22.1987 0 23.0826C0 23.9664 0.713896 24.6803 1.59777 24.6803Z" fill="#0044AF"/>
<path d="M17.5243 49.3268C17.5243 50.2106 16.8104 50.9245 15.9265 50.9245C15.0426 50.9245 14.3287 50.2106 14.3287 49.3268C14.3287 48.4429 15.0426 47.729 15.9265 47.729C16.8104 47.729 17.5243 48.4429 17.5243 49.3268Z" fill="#0044AF"/>
<path d="M60.477 49.3268C60.477 50.2106 59.7631 50.9245 58.8793 50.9245C57.9954 50.9245 57.2815 50.2106 57.2815 49.3268C57.2815 48.4429 57.9954 47.729 58.8793 47.729C59.7461 47.729 60.477 48.4429 60.477 49.3268Z" fill="#0044AF"/>
</g>
<defs>
<clipPath id="clip0">
<rect width="74.7891" height="58.0805" fill="white"/>
</clipPath>
</defs>
</svg>
