<svg width="201" height="39" viewBox="0 0 201 39" fill="none" xmlns="http://www.w3.org/2000/svg">
<path d="M109.937 38.8839C109.146 38.8839 108.366 38.5422 107.833 37.8886L101.157 29.6805C100.222 28.5293 100.403 26.8472 101.565 25.9182C102.728 24.9926 104.426 25.1717 105.364 26.323L112.041 34.5311C112.975 35.6823 112.795 37.3644 111.632 38.2934C111.13 38.6915 110.53 38.8839 109.937 38.8839Z" fill="#FCB808"/>
<path d="M138.532 12.03C137.042 12.03 135.832 13.2277 135.832 14.7041V14.8103C133.561 13.1249 130.734 12.1262 127.675 12.1262C120.198 12.1262 114.114 18.0949 114.114 25.4337C114.114 32.7725 120.198 38.7411 127.675 38.7411C130.734 38.7411 133.561 37.7392 135.832 36.0571V36.0604C135.832 37.5368 137.042 38.7345 138.532 38.7345C140.023 38.7345 141.232 37.5368 141.232 36.0604V14.7074C141.232 13.2277 140.023 12.03 138.532 12.03ZM127.675 33.3896C123.176 33.3896 119.518 29.8197 119.518 25.4337C119.518 21.0476 123.176 17.4778 127.675 17.4778C132.174 17.4778 135.832 21.0476 135.832 25.4337C135.832 29.8231 132.171 33.3896 127.675 33.3896Z" fill="white"/>
<path d="M170.116 11.9438C168.625 11.9438 167.416 13.1416 167.416 14.6179V14.8137C165.145 13.1283 162.317 12.1296 159.259 12.1296C151.782 12.1296 145.698 18.0982 145.698 25.4371C145.698 32.7759 151.782 38.7445 159.259 38.7445C162.317 38.7445 165.145 37.7426 167.416 36.0605V36.0638C167.416 37.5402 168.625 38.7379 170.116 38.7379C171.607 38.7379 172.816 37.5402 172.816 36.0638V14.6179C172.816 13.1416 171.607 11.9438 170.116 11.9438ZM159.259 33.393C154.76 33.393 151.102 29.8231 151.102 25.4371C151.102 21.051 154.76 17.4811 159.259 17.4811C163.758 17.4811 167.416 21.051 167.416 25.4371C167.416 29.8231 163.758 33.393 159.259 33.393Z" fill="white"/>
<path d="M108.282 12.2491L96.3157 21.2003V2.6741C96.3157 1.1977 95.1064 0 93.6156 0C92.1249 0 90.9155 1.1977 90.9155 2.6741V36.1169C90.9155 37.5933 92.1249 38.791 93.6156 38.791C95.1064 38.791 96.3157 37.5933 96.3157 36.1169V27.8524C96.4531 27.7827 96.5837 27.7031 96.711 27.6069L111.538 16.519C112.727 15.6299 112.965 13.9511 112.064 12.7733C111.166 11.5922 109.471 11.3599 108.282 12.2491Z" fill="white"/>
<path d="M83.0296 12.0366C81.5388 12.0366 80.3295 13.2343 80.3295 14.7107V14.8003C80.3094 14.933 80.296 15.069 80.296 15.2084V27.9983C79.9677 30.9544 77.3178 33.2668 74.1119 33.2668C70.6815 33.2668 67.8909 30.6226 67.8909 27.3745V14.7107C67.8909 13.2343 66.6816 12.0366 65.1908 12.0366C63.7001 12.0366 62.4907 13.2343 62.4907 14.7107V27.3745C62.4907 33.5721 67.7033 38.615 74.1119 38.615C76.4234 38.615 78.5774 37.9581 80.3864 36.8268C80.6879 37.978 81.7398 38.8273 82.9961 38.8273C84.4868 38.8273 85.6962 37.6296 85.6962 36.1533V28.204C85.7163 27.9286 85.7297 27.6532 85.7297 27.3745V14.7107C85.733 13.2343 84.5237 12.0366 83.0296 12.0366Z" fill="white"/>
<path d="M54.9767 0C53.4859 0 52.2766 1.1977 52.2766 2.6741V14.827C50.0287 13.1747 47.2415 12.196 44.2265 12.196C36.8096 12.196 30.7729 18.1182 30.7729 25.3973C30.7729 32.6764 36.8063 38.5986 44.2265 38.5986C47.2415 38.5986 50.0321 37.6198 52.2766 35.9676V36.1202C52.2766 37.5966 53.4859 38.7943 54.9767 38.7943C56.4674 38.7943 57.6768 37.5966 57.6768 36.1202V2.6741C57.6768 1.1977 56.4674 0 54.9767 0ZM44.2265 33.247C39.7878 33.247 36.1765 29.7236 36.1765 25.3973C36.1765 21.0709 39.7878 17.5475 44.2265 17.5475C48.6653 17.5475 52.2766 21.0709 52.2766 25.3973C52.2766 29.7236 48.6653 33.247 44.2265 33.247Z" fill="white"/>
<path d="M189.379 11.8345C187.01 11.8345 184.806 12.5246 182.967 13.7057C182.572 12.7137 181.597 12.0136 180.458 12.0136C178.967 12.0136 177.758 13.2113 177.758 14.6877V23.075V24.3755V36.1435C177.758 37.6199 178.967 38.8176 180.458 38.8176C181.948 38.8176 183.158 37.6199 183.158 36.1435V24.3788V23.0783C183.158 19.8302 185.948 17.186 189.379 17.186C192.809 17.186 195.6 19.8302 195.6 23.0783V36.1468C195.6 37.6232 196.809 38.8209 198.3 38.8209C199.791 38.8209 201 37.6232 201 36.1468V23.075C201 16.8774 195.787 11.8345 189.379 11.8345Z" fill="white"/>
<path d="M24.1468 29.7502C22.9274 28.9705 21.3027 29.3719 20.4317 30.5232C19.0113 32.3977 16.3681 33.6518 13.812 33.6518C10.2711 33.6518 6.9881 31.0839 5.8357 27.8093C5.83235 27.7993 5.83905 27.7861 5.85245 27.7861H25.0178L25.0145 27.7827C25.6811 27.7827 26.2238 27.242 26.2238 26.5784V25.112C26.2238 17.7798 20.5087 12.0334 13.2158 12.0334C5.92615 12.0334 0 17.9921 0 25.3143C0 32.6034 6.45545 39 13.8154 39C18.1269 39 22.4685 36.8667 24.8771 33.5689C25.7783 32.3314 25.46 30.5895 24.1468 29.7502ZM13.2124 17.385C16.6059 17.385 19.3463 19.4187 20.3781 22.4146C20.3814 22.4246 20.3747 22.4379 20.3613 22.4379H5.95965C5.94625 22.4379 5.93955 22.4246 5.9429 22.4146C7.08525 19.4718 9.91265 17.385 13.2124 17.385Z" fill="white"/>
</svg>
